<svg xmlns="http://www.w3.org/2000/svg" width="900" height="290" style="font-family: -apple-system, BlinkMacSystemFont, 'Segoe UI', Helvetica, Arial, sans-serif;">
  <rect width="100%" height="100%" fill="#0d1117"/>
  <g>
    <line x1="40" y1="220.00" x2="860" y2="220.00" stroke="#30363d"/><text x="32" y="224.00" font-size="10" fill="#c9d1d9" text-anchor="end">0</text><line x1="40" y1="175.00" x2="860" y2="175.00" stroke="#30363d"/><text x="32" y="179.00" font-size="10" fill="#c9d1d9" text-anchor="end">2.5k</text><line x1="40" y1="130.00" x2="860" y2="130.00" stroke="#30363d"/><text x="32" y="134.00" font-size="10" fill="#c9d1d9" text-anchor="end">5k</text><line x1="40" y1="85.00" x2="860" y2="85.00" stroke="#30363d"/><text x="32" y="89.00" font-size="10" fill="#c9d1d9" text-anchor="end">7.5k</text><line x1="40" y1="40.00" x2="860" y2="40.00" stroke="#30363d"/><text x="32" y="44.00" font-size="10" fill="#c9d1d9" text-anchor="end">10k</text>
    <line x1="40.00" y1="40" x2="40.00" y2="220" stroke="#30363d" opacity="0.5"/><line x1="122.00" y1="40" x2="122.00" y2="220" stroke="#30363d" opacity="0.5"/><line x1="204.00" y1="40" x2="204.00" y2="220" stroke="#30363d" opacity="0.5"/><line x1="286.00" y1="40" x2="286.00" y2="220" stroke="#30363d" opacity="0.5"/><line x1="368.00" y1="40" x2="368.00" y2="220" stroke="#30363d" opacity="0.5"/><line x1="450.00" y1="40" x2="450.00" y2="220" stroke="#30363d" opacity="0.5"/><line x1="532.00" y1="40" x2="532.00" y2="220" stroke="#30363d" opacity="0.5"/><line x1="614.00" y1="40" x2="614.00" y2="220" stroke="#30363d" opacity="0.5"/><line x1="696.00" y1="40" x2="696.00" y2="220" stroke="#30363d" opacity="0.5"/><line x1="778.00" y1="40" x2="778.00" y2="220" stroke="#30363d" opacity="0.5"/><line x1="860.00" y1="40" x2="860.00" y2="220" stroke="#30363d" opacity="0.5"/>
    <line x1="40" y1="220" x2="860" y2="220" stroke="#30363d"/>
    <line x1="40" y1="40"   x2="40"   y2="220" stroke="#30363d"/>
    <path d="M 40.00 181.01 L 45.86 181.01 L 51.71 181.01 L 57.57 181.08 L 63.43 181.10 L 69.29 181.28 L 75.14 179.05 L 81.00 179.03 L 86.86 178.64 L 92.71 178.60 L 98.57 174.96 L 104.43 174.89 L 110.29 174.44 L 116.14 173.81 L 122.00 172.77 L 127.86 171.85 L 133.71 171.58 L 139.57 170.07 L 145.43 168.77 L 151.29 168.11 L 157.14 168.05 L 163.00 167.89 L 168.86 167.80 L 174.71 167.06 L 180.57 167.08 L 186.43 165.96 L 192.29 165.95 L 198.14 165.80 L 204.00 165.80 L 209.86 162.18 L 215.71 162.17 L 221.57 162.15 L 227.43 162.11 L 233.29 162.09 L 239.14 161.41 L 245.00 161.32 L 250.86 159.70 L 256.71 159.36 L 262.57 159.30 L 268.43 159.23 L 274.29 158.60 L 280.14 158.51 L 286.00 158.13 L 291.86 156.53 L 297.71 156.51 L 303.57 156.35 L 309.43 156.32 L 315.29 156.28 L 321.14 155.31 L 327.00 155.31 L 332.86 152.82 L 338.71 149.80 L 344.57 149.64 L 350.43 149.58 L 356.29 149.57 L 362.14 149.22 L 368.00 149.17 L 373.86 149.04 L 379.71 146.33 L 385.57 146.27 L 391.43 145.39 L 397.29 144.98 L 403.14 144.98 L 409.00 144.85 L 414.86 143.86 L 420.71 143.86 L 426.57 143.82 L 432.43 143.81 L 438.29 143.75 L 444.14 140.37 L 450.00 140.15 L 455.86 140.15 L 461.71 139.65 L 467.57 139.36 L 473.43 139.34 L 479.29 139.04 L 485.14 138.82 L 491.00 138.71 L 496.86 138.69 L 502.71 138.57 L 508.57 138.53 L 514.43 138.23 L 520.29 138.14 L 526.14 138.14 L 532.00 137.81 L 537.86 137.34 L 543.71 137.27 L 549.57 137.09 L 555.43 137.07 L 561.29 137.06 L 567.14 136.55 L 573.00 136.53 L 578.86 136.52 L 584.71 136.50 L 590.57 136.52 L 596.43 136.50 L 602.29 136.10 L 608.14 136.16 L 614.00 136.16 L 619.86 136.08 L 625.71 135.13 L 631.57 135.90 L 637.43 135.90 L 643.29 134.32 L 649.14 132.74 L 655.00 132.74 L 660.86 132.72 L 666.71 132.66 L 672.57 131.98 L 678.43 131.35 L 684.29 131.28 L 690.14 131.08 L 696.00 131.03 L 701.86 131.03 L 707.71 131.03 L 713.57 131.03 L 719.43 131.03 L 725.29 131.03 L 731.14 131.03 L 737.00 131.03 L 742.86 131.03 L 748.71 131.03 L 754.57 131.01 L 760.43 130.86 L 766.29 128.24 L 772.14 128.47 L 778.00 128.47 L 783.86 128.47 L 789.71 128.47 L 795.57 127.82 L 801.43 127.79 L 807.29 127.79 L 813.14 125.25 L 819.00 125.05 L 824.86 124.53 L 830.71 124.42 L 836.57 124.42 L 842.43 124.42 L 848.29 124.42 L 854.14 124.42 L 860.00 124.49" fill="none" stroke="#3fb950" stroke-width="2"/>
    <circle cx="860.00" cy="124.49" r="3" fill="#3fb950"/>
    <text x="40.00" y="235.00" font-size="9" fill="#c9d1d9" text-anchor="middle" transform="rotate(-45 40.00 235.00)">28.04.2026</text><text x="122.00" y="235.00" font-size="9" fill="#c9d1d9" text-anchor="middle" transform="rotate(-45 122.00 235.00)">29.04.2026</text><text x="204.00" y="235.00" font-size="9" fill="#c9d1d9" text-anchor="middle" transform="rotate(-45 204.00 235.00)">08.05.2026</text><text x="286.00" y="235.00" font-size="9" fill="#c9d1d9" text-anchor="middle" transform="rotate(-45 286.00 235.00)">25.05.2026</text><text x="368.00" y="235.00" font-size="9" fill="#c9d1d9" text-anchor="middle" transform="rotate(-45 368.00 235.00)">04.08.2026</text><text x="450.00" y="235.00" font-size="9" fill="#c9d1d9" text-anchor="middle" transform="rotate(-45 450.00 235.00)">17.08.2026</text><text x="532.00" y="235.00" font-size="9" fill="#c9d1d9" text-anchor="middle" transform="rotate(-45 532.00 235.00)">18.08.2026</text><text x="614.00" y="235.00" font-size="9" fill="#c9d1d9" text-anchor="middle" transform="rotate(-45 614.00 235.00)">18.08.2026</text><text x="696.00" y="235.00" font-size="9" fill="#c9d1d9" text-anchor="middle" transform="rotate(-45 696.00 235.00)">26.08.2026</text><text x="778.00" y="235.00" font-size="9" fill="#c9d1d9" text-anchor="middle" transform="rotate(-45 778.00 235.00)">04.09.2026</text><text x="860.00" y="235.00" font-size="9" fill="#c9d1d9" text-anchor="middle" transform="rotate(-45 860.00 235.00)">18.09.2026</text>
  </g>
</svg>